<svg width="100" height="100" viewBox="0 0 100 100" fill="none" xmlns="http://www.w3.org/2000/svg">
<path d="M100 50C100 22.3858 77.6142 0 50 0C22.3858 0 0 22.3858 0 50C0 77.6142 22.3858 100 50 100C77.6142 100 100 77.6142 100 50Z" fill="#1A4F95"/>
<path d="M26.0459 72.5C26.0459 73.0523 26.4936 73.5 27.0459 73.5H72.9536C73.5059 73.5 73.9536 73.0523 73.9536 72.5V71.4742C73.9536 70.922 73.5059 70.4742 72.9536 70.4742H71.9279C71.3756 70.4742 70.9279 70.0265 70.9279 69.4742V45.6694C70.9279 45.219 70.6267 44.8241 70.1922 44.705L55.4497 40.6641C54.8133 40.4897 54.1854 40.9687 54.1854 41.6286V69.4238C54.1854 69.9761 53.7377 70.4238 53.1854 70.4238H52.9161C52.3638 70.4238 51.9161 69.9761 51.9161 69.4238V27.7182C51.9161 27.0877 51.3396 26.6145 50.7212 26.7374L29.8768 30.8787C29.4088 30.9716 29.0716 31.3823 29.0716 31.8595V69.4742C29.0716 70.0265 28.6239 70.4742 28.0716 70.4742H27.0459C26.4936 70.4742 26.0459 70.922 26.0459 71.4742V72.5ZM64.0695 49.8401C64.0695 49.2878 64.5172 48.8401 65.0695 48.8401H66.0953C66.6475 48.8401 67.0953 49.2878 67.0953 49.8401V51.7736C67.0953 52.3259 66.6475 52.7736 66.0953 52.7736H65.0695C64.5172 52.7736 64.0695 52.3259 64.0695 51.7736V49.8401ZM64.0695 56.8498C64.0695 56.2975 64.5172 55.8498 65.0695 55.8498H66.0953C66.6475 55.8498 67.0953 56.2975 67.0953 56.8498V58.7833C67.0953 59.3355 66.6475 59.7833 66.0953 59.7833H65.0695C64.5172 59.7833 64.0695 59.3355 64.0695 58.7833V56.8498ZM64.0695 63.8594C64.0695 63.3072 64.5172 62.8594 65.0695 62.8594H66.0953C66.6475 62.8594 67.0953 63.3072 67.0953 63.8594V65.7929C67.0953 66.3452 66.6475 66.7929 66.0953 66.7929H65.0695C64.5172 66.7929 64.0695 66.3452 64.0695 65.7929V63.8594ZM57.9676 49.8401C57.9676 49.2878 58.4153 48.8401 58.9676 48.8401H59.9933C60.5456 48.8401 60.9933 49.2878 60.9933 49.8401V51.7736C60.9933 52.3259 60.5456 52.7736 59.9933 52.7736H58.9676C58.4153 52.7736 57.9676 52.3259 57.9676 51.7736V49.8401ZM57.9676 56.8498C57.9676 56.2975 58.4153 55.8498 58.9676 55.8498H59.9933C60.5456 55.8498 60.9933 56.2975 60.9933 56.8498V58.7833C60.9933 59.3355 60.5456 59.7833 59.9933 59.7833H58.9676C58.4153 59.7833 57.9676 59.3355 57.9676 58.7833V56.8498ZM57.9676 63.8594C57.9676 63.3072 58.4153 62.8594 58.9676 62.8594H59.9933C60.5456 62.8594 60.9933 63.3072 60.9933 63.8594V65.7929C60.9933 66.3452 60.5456 66.7929 59.9933 66.7929H58.9676C58.4153 66.7929 57.9676 66.3452 57.9676 65.7929V63.8594ZM45.0577 35.8712C45.0577 35.319 45.5054 34.8712 46.0577 34.8712H47.0835C47.6357 34.8712 48.0835 35.319 48.0835 35.8712V37.8047C48.0835 38.357 47.6357 38.8047 47.0835 38.8047H46.0577C45.5054 38.8047 45.0577 38.357 45.0577 37.8047V35.8712ZM45.0577 42.8809C45.0577 42.3286 45.5054 41.8809 46.0577 41.8809H47.0835C47.6357 41.8809 48.0835 42.3286 48.0835 42.8809V44.8144C48.0835 45.3667 47.6357 45.8144 47.0835 45.8144H46.0577C45.5054 45.8144 45.0577 45.3667 45.0577 44.8144V42.8809ZM45.0577 49.8401C45.0577 49.2878 45.5054 48.8401 46.0577 48.8401H47.0835C47.6357 48.8401 48.0835 49.2878 48.0835 49.8401V51.7736C48.0835 52.3259 47.6357 52.7736 47.0835 52.7736H46.0577C45.5054 52.7736 45.0577 52.3259 45.0577 51.7736V49.8401ZM45.0577 56.8498C45.0577 56.2975 45.5054 55.8498 46.0577 55.8498H47.0835C47.6357 55.8498 48.0835 56.2975 48.0835 56.8498V58.7833C48.0835 59.3355 47.6357 59.7833 47.0835 59.7833H46.0577C45.5054 59.7833 45.0577 59.3355 45.0577 58.7833V56.8498ZM38.9558 35.8712C38.9558 35.319 39.4035 34.8712 39.9558 34.8712H40.9815C41.5338 34.8712 41.9815 35.319 41.9815 35.8712V37.8047C41.9815 38.357 41.5338 38.8047 40.9815 38.8047H39.9558C39.4035 38.8047 38.9558 38.357 38.9558 37.8047V35.8712ZM38.9558 42.8809C38.9558 42.3286 39.4035 41.8809 39.9558 41.8809H40.9815C41.5338 41.8809 41.9815 42.3286 41.9815 42.8809V44.8144C41.9815 45.3667 41.5338 45.8144 40.9815 45.8144H39.9558C39.4035 45.8144 38.9558 45.3667 38.9558 44.8144V42.8809ZM38.9558 49.8401C38.9558 49.2878 39.4035 48.8401 39.9558 48.8401H40.9815C41.5338 48.8401 41.9815 49.2878 41.9815 49.8401V51.7736C41.9815 52.3259 41.5338 52.7736 40.9815 52.7736H39.9558C39.4035 52.7736 38.9558 52.3259 38.9558 51.7736V49.8401ZM38.9558 56.8498C38.9558 56.2975 39.4035 55.8498 39.9558 55.8498H40.9815C41.5338 55.8498 41.9815 56.2975 41.9815 56.8498V58.7833C41.9815 59.3355 41.5338 59.7833 40.9815 59.7833H39.9558C39.4035 59.7833 38.9558 59.3355 38.9558 58.7833V56.8498ZM32.8538 35.8712C32.8538 35.319 33.3016 34.8712 33.8538 34.8712H34.8796C35.4319 34.8712 35.8796 35.319 35.8796 35.8712V37.8047C35.8796 38.357 35.4319 38.8047 34.8796 38.8047H33.8538C33.3016 38.8047 32.8538 38.357 32.8538 37.8047V35.8712ZM32.8538 42.8809C32.8538 42.3286 33.3016 41.8809 33.8538 41.8809H34.8796C35.4319 41.8809 35.8796 42.3286 35.8796 42.8809V44.8144C35.8796 45.3667 35.4319 45.8144 34.8796 45.8144H33.8538C33.3016 45.8144 32.8538 45.3667 32.8538 44.8144V42.8809ZM32.8538 49.8401C32.8538 49.2878 33.3016 48.8401 33.8538 48.8401H34.8796C35.4319 48.8401 35.8796 49.2878 35.8796 49.8401V51.7736C35.8796 52.3259 35.4319 52.7736 34.8796 52.7736H33.8538C33.3016 52.7736 32.8538 52.3259 32.8538 51.7736V49.8401ZM32.8538 56.8498C32.8538 56.2975 33.3016 55.8498 33.8538 55.8498H34.8796C35.4319 55.8498 35.8796 56.2975 35.8796 56.8498V58.7833C35.8796 59.3355 35.4319 59.7833 34.8796 59.7833H33.8538C33.3016 59.7833 32.8538 59.3355 32.8538 58.7833V56.8498ZM37.5942 63.8594C37.5942 63.3072 38.0419 62.8594 38.5942 62.8594H42.3935C42.9458 62.8594 43.3935 63.3072 43.3935 63.8594V69.4742C43.3935 70.0265 42.9458 70.4742 42.3935 70.4742H38.5942C38.0419 70.4742 37.5942 70.0265 37.5942 69.4742V63.8594Z" fill="white"/>
</svg>
