<svg width="148" height="148" viewBox="0 0 148 148" fill="none" xmlns="http://www.w3.org/2000/svg">
<g filter="url(#filter0_ddd_2_4)">
<path d="M124 66C124 38.3858 101.614 16 74 16C46.3858 16 24 38.3858 24 66C24 93.6142 46.3858 116 74 116C101.614 116 124 93.6142 124 66Z" fill="#1A4F95"/>
<path d="M50.0459 88.5C50.0459 89.0523 50.4936 89.5 51.0459 89.5H96.9536C97.5059 89.5 97.9536 89.0523 97.9536 88.5V87.4742C97.9536 86.922 97.5059 86.4742 96.9536 86.4742H95.9279C95.3756 86.4742 94.9279 86.0265 94.9279 85.4742V61.6694C94.9279 61.219 94.6267 60.8241 94.1922 60.705L79.4497 56.6641C78.8133 56.4897 78.1854 56.9687 78.1854 57.6286V85.4238C78.1854 85.9761 77.7377 86.4238 77.1854 86.4238H76.9161C76.3638 86.4238 75.9161 85.9761 75.9161 85.4238V43.7182C75.9161 43.0877 75.3396 42.6145 74.7212 42.7374L53.8768 46.8787C53.4088 46.9716 53.0716 47.3823 53.0716 47.8595V85.4742C53.0716 86.0265 52.6239 86.4742 52.0716 86.4742H51.0459C50.4936 86.4742 50.0459 86.922 50.0459 87.4742V88.5ZM88.0695 65.8401C88.0695 65.2878 88.5172 64.8401 89.0695 64.8401H90.0953C90.6475 64.8401 91.0953 65.2878 91.0953 65.8401V67.7736C91.0953 68.3259 90.6475 68.7736 90.0953 68.7736H89.0695C88.5172 68.7736 88.0695 68.3259 88.0695 67.7736V65.8401ZM88.0695 72.8498C88.0695 72.2975 88.5172 71.8498 89.0695 71.8498H90.0953C90.6475 71.8498 91.0953 72.2975 91.0953 72.8498V74.7833C91.0953 75.3355 90.6475 75.7833 90.0953 75.7833H89.0695C88.5172 75.7833 88.0695 75.3355 88.0695 74.7833V72.8498ZM88.0695 79.8594C88.0695 79.3072 88.5172 78.8594 89.0695 78.8594H90.0953C90.6475 78.8594 91.0953 79.3072 91.0953 79.8594V81.7929C91.0953 82.3452 90.6475 82.7929 90.0953 82.7929H89.0695C88.5172 82.7929 88.0695 82.3452 88.0695 81.7929V79.8594ZM81.9676 65.8401C81.9676 65.2878 82.4153 64.8401 82.9676 64.8401H83.9933C84.5456 64.8401 84.9933 65.2878 84.9933 65.8401V67.7736C84.9933 68.3259 84.5456 68.7736 83.9933 68.7736H82.9676C82.4153 68.7736 81.9676 68.3259 81.9676 67.7736V65.8401ZM81.9676 72.8498C81.9676 72.2975 82.4153 71.8498 82.9676 71.8498H83.9933C84.5456 71.8498 84.9933 72.2975 84.9933 72.8498V74.7833C84.9933 75.3355 84.5456 75.7833 83.9933 75.7833H82.9676C82.4153 75.7833 81.9676 75.3355 81.9676 74.7833V72.8498ZM81.9676 79.8594C81.9676 79.3072 82.4153 78.8594 82.9676 78.8594H83.9933C84.5456 78.8594 84.9933 79.3072 84.9933 79.8594V81.7929C84.9933 82.3452 84.5456 82.7929 83.9933 82.7929H82.9676C82.4153 82.7929 81.9676 82.3452 81.9676 81.7929V79.8594ZM69.0577 51.8712C69.0577 51.319 69.5054 50.8712 70.0577 50.8712H71.0835C71.6357 50.8712 72.0835 51.319 72.0835 51.8712V53.8047C72.0835 54.357 71.6357 54.8047 71.0835 54.8047H70.0577C69.5054 54.8047 69.0577 54.357 69.0577 53.8047V51.8712ZM69.0577 58.8809C69.0577 58.3286 69.5054 57.8809 70.0577 57.8809H71.0835C71.6357 57.8809 72.0835 58.3286 72.0835 58.8809V60.8144C72.0835 61.3667 71.6357 61.8144 71.0835 61.8144H70.0577C69.5054 61.8144 69.0577 61.3667 69.0577 60.8144V58.8809ZM69.0577 65.8401C69.0577 65.2878 69.5054 64.8401 70.0577 64.8401H71.0835C71.6357 64.8401 72.0835 65.2878 72.0835 65.8401V67.7736C72.0835 68.3259 71.6357 68.7736 71.0835 68.7736H70.0577C69.5054 68.7736 69.0577 68.3259 69.0577 67.7736V65.8401ZM69.0577 72.8498C69.0577 72.2975 69.5054 71.8498 70.0577 71.8498H71.0835C71.6357 71.8498 72.0835 72.2975 72.0835 72.8498V74.7833C72.0835 75.3355 71.6357 75.7833 71.0835 75.7833H70.0577C69.5054 75.7833 69.0577 75.3355 69.0577 74.7833V72.8498ZM62.9558 51.8712C62.9558 51.319 63.4035 50.8712 63.9558 50.8712H64.9815C65.5338 50.8712 65.9815 51.319 65.9815 51.8712V53.8047C65.9815 54.357 65.5338 54.8047 64.9815 54.8047H63.9558C63.4035 54.8047 62.9558 54.357 62.9558 53.8047V51.8712ZM62.9558 58.8809C62.9558 58.3286 63.4035 57.8809 63.9558 57.8809H64.9815C65.5338 57.8809 65.9815 58.3286 65.9815 58.8809V60.8144C65.9815 61.3667 65.5338 61.8144 64.9815 61.8144H63.9558C63.4035 61.8144 62.9558 61.3667 62.9558 60.8144V58.8809ZM62.9558 65.8401C62.9558 65.2878 63.4035 64.8401 63.9558 64.8401H64.9815C65.5338 64.8401 65.9815 65.2878 65.9815 65.8401V67.7736C65.9815 68.3259 65.5338 68.7736 64.9815 68.7736H63.9558C63.4035 68.7736 62.9558 68.3259 62.9558 67.7736V65.8401ZM62.9558 72.8498C62.9558 72.2975 63.4035 71.8498 63.9558 71.8498H64.9815C65.5338 71.8498 65.9815 72.2975 65.9815 72.8498V74.7833C65.9815 75.3355 65.5338 75.7833 64.9815 75.7833H63.9558C63.4035 75.7833 62.9558 75.3355 62.9558 74.7833V72.8498ZM56.8538 51.8712C56.8538 51.319 57.3016 50.8712 57.8538 50.8712H58.8796C59.4319 50.8712 59.8796 51.319 59.8796 51.8712V53.8047C59.8796 54.357 59.4319 54.8047 58.8796 54.8047H57.8538C57.3016 54.8047 56.8538 54.357 56.8538 53.8047V51.8712ZM56.8538 58.8809C56.8538 58.3286 57.3016 57.8809 57.8538 57.8809H58.8796C59.4319 57.8809 59.8796 58.3286 59.8796 58.8809V60.8144C59.8796 61.3667 59.4319 61.8144 58.8796 61.8144H57.8538C57.3016 61.8144 56.8538 61.3667 56.8538 60.8144V58.8809ZM56.8538 65.8401C56.8538 65.2878 57.3016 64.8401 57.8538 64.8401H58.8796C59.4319 64.8401 59.8796 65.2878 59.8796 65.8401V67.7736C59.8796 68.3259 59.4319 68.7736 58.8796 68.7736H57.8538C57.3016 68.7736 56.8538 68.3259 56.8538 67.7736V65.8401ZM56.8538 72.8498C56.8538 72.2975 57.3016 71.8498 57.8538 71.8498H58.8796C59.4319 71.8498 59.8796 72.2975 59.8796 72.8498V74.7833C59.8796 75.3355 59.4319 75.7833 58.8796 75.7833H57.8538C57.3016 75.7833 56.8538 75.3355 56.8538 74.7833V72.8498ZM61.5942 79.8594C61.5942 79.3072 62.0419 78.8594 62.5942 78.8594H66.3935C66.9458 78.8594 67.3935 79.3072 67.3935 79.8594V85.4742C67.3935 86.0265 66.9458 86.4742 66.3935 86.4742H62.5942C62.0419 86.4742 61.5942 86.0265 61.5942 85.4742V79.8594Z" fill="white"/>
</g>
<defs>
<filter id="filter0_ddd_2_4" x="0" y="0" width="148" height="148" filterUnits="userSpaceOnUse" color-interpolation-filters="sRGB">
<feFlood flood-opacity="0" result="BackgroundImageFix"/>
<feColorMatrix in="SourceAlpha" type="matrix" values="0 0 0 0 0 0 0 0 0 0 0 0 0 0 0 0 0 0 127 0" result="hardAlpha"/>
<feOffset dy="8"/>
<feGaussianBlur stdDeviation="12"/>
<feColorMatrix type="matrix" values="0 0 0 0 0.0562384 0 0 0 0 0.121895 0 0 0 0 0.209437 0 0 0 0.08 0"/>
<feBlend mode="normal" in2="BackgroundImageFix" result="effect1_dropShadow_2_4"/>
<feColorMatrix in="SourceAlpha" type="matrix" values="0 0 0 0 0 0 0 0 0 0 0 0 0 0 0 0 0 0 127 0" result="hardAlpha"/>
<feOffset dy="6"/>
<feGaussianBlur stdDeviation="6"/>
<feColorMatrix type="matrix" values="0 0 0 0 0.0562384 0 0 0 0 0.121895 0 0 0 0 0.209437 0 0 0 0.12 0"/>
<feBlend mode="normal" in2="effect1_dropShadow_2_4" result="effect2_dropShadow_2_4"/>
<feColorMatrix in="SourceAlpha" type="matrix" values="0 0 0 0 0 0 0 0 0 0 0 0 0 0 0 0 0 0 127 0" result="hardAlpha"/>
<feOffset dy="3"/>
<feGaussianBlur stdDeviation="3"/>
<feColorMatrix type="matrix" values="0 0 0 0 0.054902 0 0 0 0 0.121569 0 0 0 0 0.207843 0 0 0 0.08 0"/>
<feBlend mode="normal" in2="effect2_dropShadow_2_4" result="effect3_dropShadow_2_4"/>
<feBlend mode="normal" in="SourceGraphic" in2="effect3_dropShadow_2_4" result="shape"/>
</filter>
</defs>
</svg>
