<svg width="40" height="40" viewBox="0 0 40 40" fill="none" xmlns="http://www.w3.org/2000/svg">
<path d="M40 20C40 8.9543 31.0457 0 20 0C8.9543 0 0 8.9543 0 20C0 31.0457 8.9543 40 20 40C31.0457 40 40 31.0457 40 20Z" fill="#696D8C"/>
<path d="M25.1783 16.1558C25.068 16.0517 24.9209 15.9958 24.7693 16.0002C24.6177 16.0047 24.4741 16.0692 24.3701 16.1795C24.266 16.2898 24.2101 16.437 24.2145 16.5886C24.219 16.7401 24.2834 16.8837 24.3938 16.9878L26.9812 19.4289H18.5006C18.3491 19.4289 18.2037 19.4891 18.0966 19.5963C17.9894 19.7035 17.9292 19.8488 17.9292 20.0004C17.9292 20.1519 17.9894 20.2973 18.0966 20.4044C18.2037 20.5116 18.3491 20.5718 18.5006 20.5718H26.9812L24.3938 23.0129C24.3391 23.0644 24.2952 23.1262 24.2644 23.1947C24.2337 23.2632 24.2167 23.3371 24.2145 23.4122C24.2123 23.4872 24.2249 23.562 24.2516 23.6322C24.2783 23.7023 24.3185 23.7666 24.3701 23.8212C24.4216 23.8758 24.4833 23.9198 24.5518 23.9506C24.6203 23.9813 24.6942 23.9983 24.7693 24.0005C24.8443 24.0027 24.9191 23.9901 24.9893 23.9634C25.0595 23.9367 25.1237 23.8964 25.1783 23.8449L28.8115 20.4164C28.8682 20.3629 28.9134 20.2985 28.9443 20.2269C28.9752 20.1554 28.9912 20.0783 28.9912 20.0004C28.9912 19.9224 28.9752 19.8453 28.9443 19.7738C28.9134 19.7023 28.8682 19.6378 28.8115 19.5844L25.1783 16.1558Z" fill="white" stroke="white" stroke-width="0.5"/>
<path d="M20.1131 26.8571H14.1429V13.1429H20.1131C20.2647 13.1429 20.41 13.0827 20.5172 12.9755C20.6244 12.8683 20.6846 12.723 20.6846 12.5714C20.6846 12.4199 20.6244 12.2745 20.5172 12.1674C20.41 12.0602 20.2647 12 20.1131 12H13.5714C13.4199 12 13.2745 12.0602 13.1674 12.1674C13.0602 12.2745 13 12.4199 13 12.5714V27.4286C13 27.5801 13.0602 27.7255 13.1674 27.8326C13.2745 27.9398 13.4199 28 13.5714 28H20.1131C20.2647 28 20.41 27.9398 20.5172 27.8326C20.6244 27.7255 20.6846 27.5801 20.6846 27.4286C20.6846 27.277 20.6244 27.1317 20.5172 27.0245C20.41 26.9173 20.2647 26.8571 20.1131 26.8571Z" fill="white" stroke="white" stroke-width="0.5"/>
</svg>
