<svg width="100" height="100" viewBox="0 0 100 100" fill="none" xmlns="http://www.w3.org/2000/svg">
<path d="M100 50C100 22.3858 77.6142 0 50 0C22.3858 0 0 22.3858 0 50C0 77.6142 22.3858 100 50 100C77.6142 100 100 77.6142 100 50Z" fill="#1A4F95"/>
<path d="M42.8635 52.9062C36.9169 55.5492 32.8203 61.4958 32.8203 68.4996" stroke="white" stroke-width="2.5" stroke-miterlimit="10" stroke-linecap="round" stroke-linejoin="round"/>
<path d="M67.1799 68.4996C67.1799 61.4958 63.0833 55.5492 57.1367 52.9062" stroke="white" stroke-width="2.5" stroke-miterlimit="10" stroke-linecap="round" stroke-linejoin="round"/>
<path d="M49.9994 55.2864C56.5679 55.2864 61.8926 49.9617 61.8926 43.3932C61.8926 36.8248 56.5679 31.5 49.9994 31.5C43.431 31.5 38.1062 36.8248 38.1062 43.3932C38.1062 49.9617 43.431 55.2864 49.9994 55.2864Z" stroke="white" stroke-width="2.5" stroke-miterlimit="10" stroke-linecap="round" stroke-linejoin="round"/>
</svg>
